<svg xmlns="http://www.w3.org/2000/svg" xmlns:xlink="http://www.w3.org/1999/xlink" width="1202" height="226" viewBox="0 0 1202 226"><defs><style>.cls-1{fill:none;}.cls-2{opacity:0.3;}.cls-3{fill:url(#linear-gradient);}.cls-4{opacity:0.2;}.cls-5,.cls-7,.cls-9{opacity:0.5;isolation:isolate;}.cls-5{fill:url(#linear-gradient-2);}.cls-6{fill:url(#linear-gradient-3);}.cls-7{fill:url(#linear-gradient-4);}.cls-8{fill:url(#linear-gradient-5);}.cls-9{fill:url(#linear-gradient-6);}.cls-10{fill:url(#linear-gradient-7);}.cls-11{fill:url(#linear-gradient-8);}.cls-12{fill:url(#linear-gradient-9);}.cls-13{fill:url(#linear-gradient-10);}.cls-14{fill:url(#linear-gradient-11);}</style><linearGradient id="linear-gradient" x1="600" y1="47.26" x2="600" y2="176.96" gradientTransform="matrix(1, 0, 0, -1, 0, 227.8)" gradientUnits="userSpaceOnUse"><stop offset="0" stop-color="#fff"/><stop offset="1" stop-color="#d8d8d8"/></linearGradient><linearGradient id="linear-gradient-2" x1="600" y1="224.7" x2="600" y2="70.2" gradientTransform="matrix(1, 0, 0, -1, 0, 227.8)" gradientUnits="userSpaceOnUse"><stop offset="0.19" stop-color="#fff"/><stop offset="1" stop-color="#d8d8d8"/></linearGradient><linearGradient id="linear-gradient-3" x1="146.95" y1="82.92" x2="146.95" y2="122.08" xlink:href="#linear-gradient"/><linearGradient id="linear-gradient-4" x1="146.95" y1="224.7" x2="146.95" y2="70.2" xlink:href="#linear-gradient-2"/><linearGradient id="linear-gradient-5" x1="1076.11" y1="102.31" x2="1076.11" y2="163.51" xlink:href="#linear-gradient"/><linearGradient id="linear-gradient-6" x1="1128.83" y1="213.27" x2="1061.33" y2="87.28" xlink:href="#linear-gradient-2"/><linearGradient id="linear-gradient-7" x1="28.8" y1="115" x2="170.73" y2="115" gradientTransform="matrix(1, 0, 0, -1, 0, 228)" gradientUnits="userSpaceOnUse"><stop offset="0" stop-color="#fff"/><stop offset="1" stop-color="#fff" stop-opacity="0"/></linearGradient><linearGradient id="linear-gradient-8" x1="1185.42" y1="113.95" x2="1041.42" y2="115.95" xlink:href="#linear-gradient-7"/><linearGradient id="linear-gradient-9" x1="601" y1="-2" x2="601" y2="52.08" xlink:href="#linear-gradient-7"/><linearGradient id="linear-gradient-10" x1="600.78" y1="222.98" x2="600.78" y2="160.94" gradientTransform="matrix(1, 0, 0, 1, 0, 0)" xlink:href="#linear-gradient-7"/><linearGradient id="linear-gradient-11" x1="601.22" y1="64.89" x2="601.22" y2="2.85" gradientTransform="translate(0.01 -0.21) rotate(0.02)" xlink:href="#linear-gradient-7"/></defs><title>Artboard 1</title><g id="Layer_1" data-name="Layer 1"><g id="Layer_1-2" data-name="Layer 1"><path class="cls-1" d="M293.89,144.8c24.26,1.32,47.12,2.06,67.8,2.06,193,0,395.64-56,590.52-67C886.68,66.05,821.57,56.1,769.84,56.1,614.41,56.1,452.32,117.3,293.89,144.8Z"/><g class="cls-2"><path class="cls-3" d="M1200,146c-57.54-18-153.12-46.11-247.79-66.1-194.87,11.06-397.57,67-590.52,67-20.69,0-43.55-.74-67.8-2.06-46,8-91.66,13.16-136.77,13.16-42.2,0-100.58-6.26-157.12-14.1V224H1200Z"/><g class="cls-4"><path d="M1200,146c-57.54-18-153.12-46.11-247.79-66.1-194.87,11.06-397.57,67-590.52,67-20.69,0-43.55-.74-67.8-2.06-46,8-91.66,13.16-136.77,13.16-42.2,0-100.58-6.26-157.12-14.1V224H1200Z"/></g></g><path class="cls-5" d="M769.84,56.1c51.74,0,116.84,10,182.38,23.79C973.58,78.68,994.85,78,1016,78c49.13,0,118.77,11.47,184,25.06V0H0V114.49c90.58,12.22,202.25,25.38,293.89,30.31C452.32,117.3,614.41,56.1,769.84,56.1Z"/><g class="cls-2"><path class="cls-6" d="M293.89,144.8C202.25,139.8,90.58,126.67,0,114.45V143.9C56.54,151.74,114.92,158,157.12,158,202.23,158,247.91,152.8,293.89,144.8Z"/><g class="cls-4"><path d="M293.89,144.8C202.25,139.8,90.58,126.67,0,114.45V143.9C56.54,151.74,114.92,158,157.12,158,202.23,158,247.91,152.8,293.89,144.8Z"/></g></g><path class="cls-7" d="M293.89,144.8C202.25,139.8,90.58,126.67,0,114.45V143.9C56.54,151.74,114.92,158,157.12,158,202.23,158,247.91,152.8,293.89,144.8Z"/><g class="cls-2"><path class="cls-8" d="M952.21,79.89c94.67,20,190.24,48.11,247.79,66.1V103.05C1134.77,89.47,1065.13,78,1016,78,994.85,78,973.58,78.68,952.21,79.89Z"/><g class="cls-4"><path d="M952.21,79.89c94.67,20,190.24,48.11,247.79,66.1V103.05C1134.77,89.47,1065.13,78,1016,78,994.85,78,973.58,78.68,952.21,79.89Z"/></g></g><path class="cls-9" d="M952.21,79.89c94.67,20,190.24,48.11,247.79,66.1V103.05C1134.77,89.47,1065.13,78,1016,78,994.85,78,973.58,78.68,952.21,79.89Z"/><rect class="cls-10" width="180" height="226"/><rect class="cls-11" x="1020" width="180" height="226"/><rect class="cls-12" y="154" width="1202" height="72"/></g></g><g id="Layer_2" data-name="Layer 2"><rect class="cls-13" y="158.3" width="1201.56" height="67.5"/><rect class="cls-14" x="0.44" y="0.21" width="1201.56" height="67.5" transform="translate(1202.45 67.7) rotate(179.98)"/></g></svg>
